# xmcd
#
# Track frame offsets:
# 150
# 14430
# 34505
# 52050
# 72587
# 86727
# 101985
# 121122
# 139630
# 157930
# 173205
# 186540
# 203792
# 222090
# 242267
# 264617
# 280260
# 303725
#
# Disc length: 4214 seconds
#
#
# Revision: 0
# Processed by: cddbd v1.5.2PL0 Copyright (c) Steve Scherf et al.
# Submitted via: FreeRIP 2.945 
#
DISCID=09107412
DTITLE=Emmerson Nogueira - Emmerson Nogueira - Versão Acústica 2
DYEAR=2002
DGENRE=Pop
TTITLE0=EVERY LITTKE THING SHE DOES IS MAGIC
TTITLE1=AFRICA
TTITLE2=MORE THAN WORDS
TTITLE3=THE BOXER
TTITLE4=THE LOGICAL SONG
TTITLE5=TICKET TO RIDE
TTITLE6=WILD WORLD
TTITLE7=I DON'T WANNA TALK ABOUT IT
TTITLE8=SKYLINE PIGEON
TTITLE9=TOM SAWYER
TTITLE10=KONG TRAIN RUNNIN'
TTITLE11=BLOWIN' IN THE WIND
TTITLE12=FOLLOW YOU FOLLOW ME
TTITLE13=CRAZY
TTITLE14=YOU'VE GOT A FRIEND
TTITLE15=VENTURA HIGHWAY
TTITLE16=ALL MY LOVE
TTITLE17=MERCEDEZ BENZ
EXTD=
EXTT0=
EXTT1=
EXTT2=
EXTT3=
EXTT4=
EXTT5=
EXTT6=
EXTT7=
EXTT8=
EXTT9=
EXTT10=
EXTT11=
EXTT12=
EXTT13=
EXTT14=
EXTT15=
EXTT16=
EXTT17=
PLAYORDER=
